<svg fill="none" xmlns="http://www.w3.org/2000/svg" viewBox="0 0 200 48">
  <path d="M3.11 40.206C1.59 40.623.35 41.723.036 42.93c-.175.682.314.666.839-.015 1.013-1.363 3.196-1.44 6.008-.232C9.311 43.72 10.29 44 11.617 44c1.922-.016 3.529-.883 4.227-2.292.63-1.301.35-1.456-.768-.434-1.45 1.332-2.987 1.301-6.393-.14-2.708-1.13-4.035-1.362-5.573-.928zm182.712.061c-1.555.48-2.585 1.41-2.917 2.664-.192.666.332.682.803.016.647-.867 1.38-1.146 2.952-1.069 1.188.047 1.538.155 3.669 1.053l2.358.992h1.659c1.293 0 1.799-.062 2.271-.295 1.205-.557 2.026-1.502 2.341-2.617.087-.34.052-.418-.227-.418a.52.52 0 00-.455.31c-.157.449-1.065 1.053-1.886 1.254-1.101.263-2.446-.015-4.839-1.022-2.882-1.193-4.07-1.379-5.729-.868zM15.048 25.992v-.72c.816-.048 1.428-.144 1.836-.288.432-.144.72-.432.864-.864.144-.432.216-1.08.216-1.944V4.32c0-.888-.072-1.536-.216-1.944a1.298 1.298 0 00-.864-.864c-.408-.168-1.02-.264-1.836-.288v-.72c.552.024 1.248.048 2.088.072a89.699 89.699 0 005.112 0c.816-.024 1.476-.048 1.98-.072v.72c-.816.024-1.44.12-1.872.288-.408.144-.684.432-.828.864-.144.408-.216 1.056-.216 1.944v17.856c0 .864.072 1.512.216 1.944.144.432.42.72.828.864.432.144 1.056.24 1.872.288v.72a21.771 21.771 0 00-1.98-.072 89.699 89.699 0 00-5.112 0c-.84 0-1.536.024-2.088.072zM0 25.992v-.72c.816-.048 1.428-.144 1.836-.288.432-.144.72-.432.864-.864.144-.432.216-1.08.216-1.944V4.32c0-.888-.072-1.536-.216-1.944a1.298 1.298 0 00-.864-.864C1.428 1.344.816 1.248 0 1.224v-.72c.504.024 1.164.048 1.98.072a89.699 89.699 0 005.112 0C7.932.552 8.628.528 9.18.504v.72c-.816.024-1.44.12-1.872.288-.408.144-.684.432-.828.864-.144.408-.216 1.056-.216 1.944v17.856c0 .864.072 1.512.216 1.944.144.432.42.72.828.864.432.144 1.056.24 1.872.288v.72a24.876 24.876 0 00-2.088-.072 89.699 89.699 0 00-5.112 0c-.816 0-1.476.024-1.98.072zm5.004-12.456v-.72h14.22v.72H5.004zM43.122.324l8.784 22.644c.36.912.768 1.524 1.224 1.836.456.288.876.444 1.26.468v.72a18.161 18.161 0 00-1.764-.072 60.584 60.584 0 00-2.088-.036c-.936 0-1.812.012-2.628.036-.816 0-1.476.024-1.98.072v-.72c1.224-.048 2.004-.252 2.34-.612.336-.384.264-1.188-.216-2.412L41.358 4.356l.576-.468L35.67 20.16c-.384.96-.612 1.776-.684 2.448-.072.648-.012 1.164.18 1.548.216.384.564.66 1.044.828.504.168 1.128.264 1.872.288v.72a29.856 29.856 0 00-2.124-.072 60.745 60.745 0 00-2.016-.036c-.6 0-1.116.012-1.548.036-.408 0-.792.024-1.152.072v-.72c.48-.12.972-.396 1.476-.828.504-.456.96-1.224 1.368-2.304L42.546.324h.576zm4.392 15.3v.72H36.786l.36-.72h10.368zM69.919.504v.72c-.816.024-1.44.12-1.872.288-.408.144-.684.432-.828.864-.144.408-.216 1.056-.216 1.944v17.856c0 .864.072 1.512.216 1.944.144.432.42.72.828.864.432.12 1.056.18 1.872.18h2.628c1.128 0 2.04-.12 2.736-.36.72-.24 1.284-.612 1.692-1.116.432-.528.756-1.224.972-2.088.216-.864.384-1.92.504-3.168h.828c-.072.744-.108 1.728-.108 2.952 0 .456.012 1.116.036 1.98.048.84.12 1.716.216 2.628a106.655 106.655 0 00-4.14-.072 265.718 265.718 0 00-4.104-.036h-2.052c-.816 0-1.704.012-2.664.036-.96 0-1.932.012-2.916.036-.984 0-1.92.012-2.808.036v-.72c.816-.048 1.428-.144 1.836-.288.432-.144.72-.432.864-.864.144-.432.216-1.08.216-1.944V4.32c0-.888-.072-1.536-.216-1.944a1.298 1.298 0 00-.864-.864c-.408-.168-1.02-.264-1.836-.288v-.72c.504.024 1.164.048 1.98.072a89.691 89.691 0 005.112 0c.84-.024 1.536-.048 2.088-.072zM99.507 0c1.584 0 2.88.24 3.888.72a12.67 12.67 0 012.736 1.62c.48.36.84.408 1.08.144.264-.288.444-.948.54-1.98h.828a94.504 94.504 0 00-.108 3.24 279.706 279.706 0 00-.036 5.04h-.828a35.393 35.393 0 00-.468-2.448c-.144-.624-.324-1.152-.54-1.584a6.273 6.273 0 00-.792-1.296 6.276 6.276 0 00-2.808-2.124 9.42 9.42 0 00-3.564-.684c-1.176 0-2.244.3-3.204.9-.936.576-1.752 1.416-2.448 2.52-.672 1.104-1.2 2.436-1.584 3.996-.36 1.56-.54 3.312-.54 5.256 0 2.016.204 3.804.612 5.364.408 1.536.972 2.832 1.692 3.888.744 1.056 1.608 1.86 2.592 2.412a6.88 6.88 0 003.24.792c1.08 0 2.208-.216 3.384-.648 1.176-.432 2.1-1.128 2.772-2.088a5.992 5.992 0 001.08-2.268c.216-.816.408-1.956.576-3.42h.828c0 2.184.012 3.948.036 5.292.024 1.32.06 2.436.108 3.348h-.828c-.096-1.032-.264-1.68-.504-1.944-.216-.264-.588-.228-1.116.108a19.567 19.567 0 01-2.844 1.656c-.984.456-2.256.684-3.816.684-2.28 0-4.284-.516-6.012-1.548-1.704-1.032-3.036-2.52-3.996-4.464-.936-1.944-1.404-4.284-1.404-7.02 0-2.688.492-5.04 1.476-7.056s2.328-3.588 4.032-4.716C95.295.564 97.275 0 99.507 0zm38.357.504v.72c-.456.096-.912.396-1.368.9-.456.48-.96 1.248-1.512 2.304l-7.272 14.4h-.612l-8.424-15.552c-.48-.888-.888-1.44-1.224-1.656-.312-.24-.6-.36-.864-.36V.504l1.476.072c.528.024 1.092.036 1.692.036h2.52c.912-.024 1.752-.06 2.52-.108v.756c-.6 0-1.128.072-1.584.216-.456.144-.756.408-.9.792-.144.384-.036.924.324 1.62l6.084 11.664-.288.216 4.788-9.54c.672-1.32.996-2.34.972-3.06 0-.72-.276-1.212-.828-1.476-.552-.288-1.332-.444-2.34-.468v-.72l2.124.072c.72.024 1.392.036 2.016.036.624 0 1.14-.012 1.548-.036.408-.024.792-.048 1.152-.072zm-8.532 14.544v7.128c0 .864.072 1.512.216 1.944.144.432.42.72.828.864.432.144 1.056.24 1.872.288v.72a24.876 24.876 0 00-2.088-.072 89.699 89.699 0 00-5.112 0c-.816 0-1.476.024-1.98.072v-.72c.816-.048 1.428-.144 1.836-.288.432-.144.72-.432.864-.864.144-.432.216-1.08.216-1.944v-7.38l1.944 2.232 1.404-1.98zM156.238 0c2.28 0 4.272.516 5.976 1.548 1.728 1.032 3.06 2.52 3.996 4.464.96 1.92 1.44 4.26 1.44 7.02 0 2.688-.492 5.04-1.476 7.056-.96 2.016-2.304 3.588-4.032 4.716-1.728 1.128-3.708 1.692-5.94 1.692-2.28 0-4.284-.516-6.012-1.548-1.704-1.032-3.036-2.52-3.996-4.464-.936-1.944-1.404-4.284-1.404-7.02 0-2.688.492-5.04 1.476-7.056s2.328-3.588 4.032-4.716C152.026.564 154.006 0 156.238 0zm-.144.648c-1.56 0-2.916.54-4.068 1.62-1.152 1.08-2.052 2.568-2.7 4.464-.624 1.896-.936 4.092-.936 6.588 0 2.544.348 4.764 1.044 6.66.72 1.872 1.68 3.324 2.88 4.356 1.224 1.008 2.568 1.512 4.032 1.512 1.56 0 2.916-.54 4.068-1.62 1.152-1.08 2.04-2.568 2.664-4.464.648-1.92.972-4.116.972-6.588 0-2.568-.36-4.788-1.08-6.66-.696-1.872-1.644-3.312-2.844-4.32-1.2-1.032-2.544-1.548-4.032-1.548zm43.07-.144v.72c-.816.024-1.44.144-1.872.36-.408.216-.684.564-.828 1.044-.144.48-.216 1.164-.216 2.052v21.492h-.828L180.3 2.808v19.008c0 .864.072 1.548.216 2.052.168.48.48.828.936 1.044.48.192 1.188.312 2.124.36v.72a15.949 15.949 0 00-1.692-.072 57.58 57.58 0 00-1.98-.036c-.6 0-1.212.012-1.836.036-.6 0-1.104.024-1.512.072v-.72c.816-.048 1.428-.168 1.836-.36.432-.216.72-.564.864-1.044.144-.504.216-1.188.216-2.052V4.32c0-.888-.072-1.536-.216-1.944a1.298 1.298 0 00-.864-.864c-.408-.168-1.02-.264-1.836-.288v-.72c.408.024.912.048 1.512.072.624.024 1.236.036 1.836.036.528 0 1.032-.012 1.512-.036.48-.024.912-.048 1.296-.072l12.708 19.584V4.68c0-.888-.084-1.572-.252-2.052-.144-.48-.456-.828-.936-1.044-.456-.216-1.152-.336-2.088-.36v-.72c.432.024.996.048 1.692.072.72.024 1.38.036 1.98.036.624 0 1.236-.012 1.836-.036a65.965 65.965 0 001.512-.072zM27.626 35.44c.704 0 1.28.107 1.728.32a5.65 5.65 0 011.216.72c.214.16.374.181.48.064.118-.128.198-.421.24-.88h.368a42.18 42.18 0 00-.048 1.44c-.01.565-.016 1.312-.016 2.24h-.368a15.69 15.69 0 00-.208-1.088 3.185 3.185 0 00-.24-.704 2.784 2.784 0 00-.352-.576 2.789 2.789 0 00-1.248-.944 4.185 4.185 0 00-1.584-.304c-.522 0-.997.133-1.424.4-.416.256-.778.63-1.088 1.12-.298.49-.533 1.083-.704 1.776-.16.693-.24 1.472-.24 2.336 0 .896.091 1.69.272 2.384.182.683.432 1.259.752 1.728.331.47.715.827 1.152 1.072.448.235.928.352 1.44.352.48 0 .982-.096 1.504-.288a2.52 2.52 0 001.232-.928c.235-.31.395-.645.48-1.008.096-.363.182-.87.256-1.52h.368c0 .97.006 1.755.016 2.352.011.587.027 1.083.048 1.488h-.368c-.042-.459-.117-.747-.224-.864-.096-.117-.261-.101-.496.048a8.693 8.693 0 01-1.264.736c-.437.203-1.002.304-1.696.304-1.013 0-1.904-.23-2.672-.688-.757-.459-1.349-1.12-1.776-1.984-.416-.864-.624-1.904-.624-3.12 0-1.195.219-2.24.656-3.136.438-.896 1.035-1.595 1.792-2.096.768-.501 1.648-.752 2.64-.752zm12.168.144l3.904 10.064c.16.405.341.677.544.816.203.128.39.197.56.208v.32a8.084 8.084 0 00-.784-.032 28.77 28.77 0 00-.928-.016c-.416 0-.805.005-1.168.016-.363 0-.656.01-.88.032v-.32c.544-.021.89-.112 1.04-.272.15-.17.117-.528-.096-1.072l-2.976-7.952.256-.208-2.784 7.232c-.17.427-.272.79-.304 1.088-.032.288-.005.517.08.688.096.17.25.293.464.368.224.075.501.117.832.128v.32a13.29 13.29 0 00-.944-.032c-.32-.01-.619-.016-.896-.016-.267 0-.496.005-.688.016-.181 0-.352.01-.512.032v-.32c.213-.053.432-.176.656-.368.224-.203.427-.544.608-1.024l3.76-9.696h.256zm1.952 6.8v.32h-4.768l.16-.32h4.608zm9.318-6.72v.32c-.363.01-.64.053-.832.128a.577.577 0 00-.368.384c-.064.181-.096.47-.096.864v7.936c0 .384.032.672.096.864.064.192.186.32.368.384.192.053.469.08.832.08h1.168c.5 0 .906-.053 1.216-.16.32-.107.57-.272.752-.496.192-.235.336-.544.432-.928.096-.384.17-.853.224-1.408h.368c-.032.33-.048.768-.048 1.312 0 .203.005.496.016.88.02.373.053.763.096 1.168a47.468 47.468 0 00-1.84-.032c-.683-.01-1.291-.016-1.824-.016h-.912c-.363 0-.758.005-1.184.016-.427 0-.86.005-1.296.016-.438 0-.854.005-1.248.016v-.32c.362-.021.634-.064.816-.128a.577.577 0 00.384-.384c.064-.192.096-.48.096-.864V37.36c0-.395-.032-.683-.096-.864a.577.577 0 00-.384-.384c-.182-.075-.454-.117-.816-.128v-.32c.224.01.517.021.88.032a39.751 39.751 0 002.272 0c.373-.01.682-.021.928-.032zm19.838 0v.32c-.363.01-.64.053-.832.128a.577.577 0 00-.368.384c-.064.181-.096.47-.096.864v7.936c0 .384.032.672.096.864.064.192.186.32.368.384.192.064.47.107.832.128v.32a11.069 11.069 0 00-.928-.032 39.751 39.751 0 00-2.272 0c-.363 0-.656.01-.88.032v-.32c.362-.021.635-.064.816-.128a.577.577 0 00.384-.384c.064-.192.096-.48.096-.864v-8.8l.064.048-3.92 10.528h-.256l-4.032-10.384v8.448c0 .384.032.688.096.912a.779.779 0 00.416.464c.213.085.528.139.944.16v.32a7.096 7.096 0 00-.752-.032 21.174 21.174 0 00-1.696 0c-.267 0-.49.01-.672.032v-.32c.362-.021.634-.075.816-.16a.73.73 0 00.384-.464c.064-.224.096-.528.096-.912V37.36c0-.395-.032-.683-.096-.864a.577.577 0 00-.384-.384c-.181-.075-.453-.117-.816-.128v-.32c.181.01.405.021.672.032.277.01.55.016.816.016a25.598 25.598 0 001.36-.048l3.632 9.568-.272.128 3.6-9.648h.752a52.899 52.899 0 002.032-.048zm17.374 0v.32c-.202.043-.405.176-.608.4-.202.213-.426.555-.672 1.024l-3.231 6.4h-.272l-3.744-6.912c-.214-.395-.395-.64-.544-.736-.14-.107-.267-.16-.385-.16v-.336l.657.032c.234.01.485.016.751.016h1.12c.406-.01.78-.027 1.12-.048V36a2.34 2.34 0 00-.704.096c-.202.064-.335.181-.4.352-.064.17-.016.41.144.72l2.705 5.184-.128.096 2.128-4.24c.298-.587.442-1.04.431-1.36 0-.32-.122-.539-.368-.656-.245-.128-.591-.197-1.04-.208v-.32l.944.032c.32.01.62.016.896.016.278 0 .507-.005.689-.016.18-.01.352-.021.511-.032zm-3.791 6.464v3.168c0 .384.031.672.096.864.063.192.186.32.367.384.193.064.47.107.833.128v.32a11.072 11.072 0 00-.928-.032 39.746 39.746 0 00-2.272 0c-.363 0-.656.01-.88.032v-.32c.362-.021.634-.064.816-.128a.577.577 0 00.383-.384c.064-.192.096-.48.096-.864v-3.28l.865.992.623-.88zm11.318-6.688c1.013 0 1.898.23 2.656.688.768.459 1.36 1.12 1.776 1.984.426.853.64 1.893.64 3.12 0 1.195-.219 2.24-.656 3.136-.427.896-1.024 1.595-1.792 2.096-.768.501-1.648.752-2.64.752-1.014 0-1.904-.23-2.672-.688-.758-.459-1.35-1.12-1.776-1.984-.416-.864-.624-1.904-.624-3.12 0-1.195.218-2.24.656-3.136.437-.896 1.034-1.595 1.792-2.096.768-.501 1.648-.752 2.64-.752zm-.064.288c-.694 0-1.296.24-1.808.72s-.912 1.141-1.2 1.984c-.278.843-.416 1.819-.416 2.928 0 1.13.154 2.117.464 2.96.32.832.746 1.477 1.28 1.936.544.448 1.14.672 1.792.672.693 0 1.296-.24 1.808-.72s.906-1.141 1.184-1.984c.288-.853.432-1.83.432-2.928 0-1.141-.16-2.128-.48-2.96-.31-.832-.731-1.472-1.264-1.92-.534-.459-1.131-.688-1.792-.688zm18.293-.064v.32c-.362.01-.64.064-.832.16a.74.74 0 00-.368.464c-.064.213-.096.517-.096.912v4.816c0 .747-.048 1.397-.144 1.952-.096.555-.266 1.035-.512 1.44-.266.448-.656.81-1.168 1.088-.512.267-1.098.4-1.76.4a5.574 5.574 0 01-1.472-.192 2.747 2.747 0 01-1.216-.672 4.004 4.004 0 01-.736-.944c-.17-.33-.288-.736-.352-1.216a14.079 14.079 0 01-.096-1.808V37.36c0-.395-.032-.683-.096-.864a.577.577 0 00-.384-.384c-.181-.075-.453-.117-.816-.128v-.32c.224.01.518.021.88.032a39.766 39.766 0 002.272 0c.374-.01.683-.021.928-.032v.32c-.362.01-.64.053-.832.128a.577.577 0 00-.368.384c-.064.181-.096.47-.096.864v5.296c0 .544.027 1.061.08 1.552.054.48.16.907.32 1.28.171.363.427.65.768.864.342.203.795.304 1.36.304.811 0 1.435-.176 1.872-.528.448-.363.758-.859.928-1.488.182-.63.272-1.339.272-2.128V37.52c0-.395-.048-.699-.144-.912a.828.828 0 00-.448-.464c-.213-.096-.501-.15-.864-.16v-.32a37.45 37.45 0 001.632.048 28.945 28.945 0 001.488-.048zm3.018 0a50.832 50.832 0 001.952.048c.502 0 .982-.005 1.44-.016.459-.01.784-.016.976-.016.864 0 1.579.123 2.144.368.576.245 1.003.581 1.28 1.008.288.416.432.885.432 1.408 0 .32-.064.661-.192 1.024a2.748 2.748 0 01-.672 1.024c-.309.32-.736.587-1.28.8-.544.203-1.232.304-2.064.304h-1.536v-.32h1.376c.758 0 1.334-.117 1.728-.352.406-.245.678-.565.816-.96.15-.405.224-.853.224-1.344 0-.843-.202-1.493-.608-1.952-.394-.47-1.077-.704-2.048-.704-.49 0-.81.09-.96.272-.149.181-.224.55-.224 1.104v7.936c0 .384.032.672.096.864.064.192.187.32.368.384.192.064.47.107.832.128v.32a11.054 11.054 0 00-.928-.032 39.766 39.766 0 00-2.272 0c-.362 0-.656.01-.88.032v-.32c.363-.021.635-.064.816-.128a.577.577 0 00.384-.384c.064-.192.096-.48.096-.864V37.36c0-.395-.032-.683-.096-.864a.577.577 0 00-.384-.384c-.181-.075-.453-.117-.816-.128v-.32zm2.544 5.68c.576.021 1.03.048 1.36.08.331.021.598.043.8.064.214.021.416.048.608.08.715.117 1.227.336 1.536.656.32.31.555.795.704 1.456l.4 1.632c.107.47.214.81.32 1.024a.542.542 0 00.528.288.703.703 0 00.448-.176 2.64 2.64 0 00.4-.432l.24.176c-.224.33-.458.587-.704.768-.234.17-.57.256-1.008.256-.394 0-.741-.117-1.04-.352-.298-.235-.522-.693-.672-1.376l-.352-1.6a7.657 7.657 0 00-.336-1.184c-.117-.341-.288-.608-.512-.8-.213-.192-.533-.288-.96-.288h-1.728l-.032-.272zm18.892-5.856c.534 0 .939.064 1.216.192.278.117.523.25.736.4l.304.176a.691.691 0 00.24.048c.107 0 .182-.059.224-.176a1.97 1.97 0 00.128-.528h.368c-.01.181-.026.4-.048.656-.01.245-.021.576-.032.992v1.616h-.368a4.623 4.623 0 00-.336-1.472 2.8 2.8 0 00-.848-1.152c-.362-.299-.842-.448-1.44-.448-.565 0-1.034.17-1.408.512-.362.341-.544.79-.544 1.344 0 .48.123.885.368 1.216.246.32.571.613.976.88.416.256.864.533 1.344.832.555.341 1.046.683 1.472 1.024.438.33.779.699 1.024 1.104.256.405.384.896.384 1.472 0 .683-.154 1.248-.464 1.696-.309.448-.72.784-1.232 1.008a4.185 4.185 0 01-1.696.336c-.565 0-1.013-.064-1.344-.192a5.821 5.821 0 01-.848-.4c-.234-.15-.416-.224-.544-.224-.106 0-.186.059-.24.176a2.77 2.77 0 00-.112.528h-.368a8.16 8.16 0 00.032-.784c.011-.31.016-.71.016-1.2.011-.49.016-1.11.016-1.856h.368c.043.64.16 1.237.352 1.792.203.555.507 1.003.912 1.344.416.33.966.496 1.648.496.352 0 .683-.07.992-.208.32-.15.582-.379.784-.688.203-.32.304-.73.304-1.232 0-.437-.106-.816-.32-1.136a3.279 3.279 0 00-.864-.912c-.373-.288-.81-.581-1.312-.88-.501-.31-.97-.624-1.408-.944a4.145 4.145 0 01-1.056-1.104c-.256-.427-.384-.939-.384-1.536 0-.63.139-1.147.416-1.552.288-.416.662-.72 1.12-.912a3.6 3.6 0 011.472-.304zm15.121.176c-.043.373-.075.736-.096 1.088-.011.352-.016.619-.016.8 0 .192.005.379.016.56.011.17.021.315.032.432h-.368c-.064-.63-.155-1.125-.272-1.488-.117-.373-.32-.635-.608-.784-.277-.16-.699-.24-1.264-.24h-1.328c-.363 0-.64.032-.832.096a.533.533 0 00-.368.368c-.064.181-.096.47-.096.864v7.936c0 .384.032.672.096.864.064.192.187.32.368.384.192.053.469.08.832.08h1.168c.672 0 1.179-.09 1.52-.272.352-.181.603-.475.752-.88.16-.416.277-.976.352-1.68h.368c-.032.288-.048.672-.048 1.152 0 .203.005.496.016.88.021.373.053.763.096 1.168a47.457 47.457 0 00-1.84-.032c-.683-.01-1.291-.016-1.824-.016h-.912c-.363 0-.757.005-1.184.016-.427 0-.859.005-1.296.016-.437 0-.853.005-1.248.016v-.32c.363-.021.635-.064.816-.128a.577.577 0 00.384-.384c.064-.192.096-.48.096-.864V37.36c0-.395-.032-.683-.096-.864a.577.577 0 00-.384-.384c-.181-.075-.453-.117-.816-.128v-.32l1.248.032c.437 0 .869.005 1.296.016h3.76a64.53 64.53 0 001.68-.048zm-2.752 5.472v.32h-2.928v-.32h2.928zm.464-2.112a21.25 21.25 0 00-.064 1.392c.011.32.016.613.016.88s.005.56.016.88c.011.32.037.784.08 1.392h-.368a13.953 13.953 0 00-.16-.992c-.053-.33-.181-.597-.384-.8-.192-.213-.523-.32-.992-.32v-.32c.352 0 .619-.07.8-.208.192-.15.331-.336.416-.56.085-.224.144-.453.176-.688.032-.245.064-.464.096-.656h.368zm10.47-3.44l3.904 10.064c.16.405.341.677.544.816.203.128.389.197.56.208v.32a8.082 8.082 0 00-.784-.032 28.72 28.72 0 00-.928-.016c-.416 0-.805.005-1.168.016-.363 0-.656.01-.88.032v-.32c.544-.021.891-.112 1.04-.272.149-.17.117-.528-.096-1.072l-2.976-7.952.256-.208-2.784 7.232c-.171.427-.272.79-.304 1.088-.032.288-.005.517.08.688a.82.82 0 00.464.368c.224.075.501.117.832.128v.32a13.289 13.289 0 00-.944-.032c-.32-.01-.619-.016-.896-.016-.267 0-.496.005-.688.016-.181 0-.352.01-.512.032v-.32c.213-.053.432-.176.656-.368.224-.203.427-.544.608-1.024l3.76-9.696h.256zm1.952 6.8v.32h-4.768l.16-.32h4.608zm8.974-6.896c.533 0 .939.064 1.216.192.277.117.523.25.736.4l.304.176a.683.683 0 00.24.048c.107 0 .181-.059.224-.176a2.01 2.01 0 00.128-.528h.368c-.011.181-.027.4-.048.656-.011.245-.021.576-.032.992v1.616h-.368a4.623 4.623 0 00-.336-1.472 2.808 2.808 0 00-.848-1.152c-.363-.299-.843-.448-1.44-.448-.565 0-1.035.17-1.408.512-.363.341-.544.79-.544 1.344 0 .48.123.885.368 1.216.245.32.571.613.976.88.416.256.864.533 1.344.832.555.341 1.045.683 1.472 1.024.437.33.779.699 1.024 1.104.256.405.384.896.384 1.472 0 .683-.155 1.248-.464 1.696-.309.448-.72.784-1.232 1.008a4.185 4.185 0 01-1.696.336c-.565 0-1.013-.064-1.344-.192a5.772 5.772 0 01-.848-.4c-.235-.15-.416-.224-.544-.224-.107 0-.187.059-.24.176-.043.117-.08.293-.112.528h-.368c.021-.224.032-.485.032-.784.011-.31.016-.71.016-1.2.011-.49.016-1.11.016-1.856h.368c.043.64.16 1.237.352 1.792.203.555.507 1.003.912 1.344.416.33.965.496 1.648.496.352 0 .683-.07.992-.208.32-.15.581-.379.784-.688.203-.32.304-.73.304-1.232 0-.437-.107-.816-.32-1.136a3.308 3.308 0 00-.864-.912 13.303 13.303 0 00-1.312-.88 21.51 21.51 0 01-1.408-.944 4.145 4.145 0 01-1.056-1.104c-.256-.427-.384-.939-.384-1.536 0-.63.139-1.147.416-1.552.288-.416.661-.72 1.12-.912a3.6 3.6 0 011.472-.304z" fill="#FEFFFE"/>
</svg>
